<?xml version="1.0" encoding="utf-8"?>
<!-- Generator: Adobe Illustrator 27.9.0, SVG Export Plug-In . SVG Version: 6.00 Build 0)  -->
<svg version="1.1" id="Layer_1" xmlns="http://www.w3.org/2000/svg" xmlns:xlink="http://www.w3.org/1999/xlink" x="0px" y="0px"
	 viewBox="0 0 24 24" style="enable-background:new 0 0 24 24;" xml:space="preserve">
<style type="text/css">
	.st0{fill:#AFB1B4;}
</style>
<path class="st0" d="M12,22c-1.4,0-2.7-0.3-3.9-0.8S5.8,20,4.9,19.1c-0.9-0.9-1.6-2-2.1-3.2S2,13.4,2,12s0.3-2.7,0.8-3.9
	S4,5.8,4.9,4.9s2-1.6,3.2-2.1S10.6,2,12,2s2.7,0.3,3.9,0.8s2.3,1.2,3.2,2.1s1.6,2,2.1,3.2C21.7,9.3,22,10.6,22,12s-0.3,2.7-0.8,3.9
	c-0.5,1.2-1.2,2.3-2.1,3.2c-0.9,0.9-2,1.6-3.2,2.1S13.4,22,12,22z M12,20c2.2,0,4.1-0.8,5.7-2.3c1.5-1.5,2.3-3.4,2.3-5.7
	c0-0.1,0-0.2,0-0.4c0-0.1,0-0.2,0-0.3c-0.1,0.5-0.3,0.9-0.7,1.2C18.9,12.8,18.5,13,18,13h-2c-0.6,0-1-0.2-1.4-0.6
	C14.2,12,14,11.6,14,11v-1h-4V8c0-0.6,0.2-1,0.6-1.4C11,6.2,11.4,6,12,6h1c0-0.4,0.1-0.7,0.3-1s0.5-0.5,0.8-0.7
	c-0.3-0.1-0.7-0.2-1-0.2C12.7,4,12.4,4,12,4C9.8,4,7.9,4.8,6.3,6.3S4,9.8,4,12h5c1.1,0,2,0.4,2.8,1.2C12.6,14,13,14.9,13,16v1h-3
	v2.8c0.3,0.1,0.7,0.1,1,0.2S11.7,20,12,20z"/>
</svg>
